<?xml version="1.0" encoding="UTF-8" standalone="no"?>
<!-- Created with Inkscape (http://www.inkscape.org/) -->

<svg
   xmlns:dc="http://purl.org/dc/elements/1.1/"
   xmlns:cc="http://creativecommons.org/ns#"
   xmlns:rdf="http://www.w3.org/1999/02/22-rdf-syntax-ns#"
   xmlns:svg="http://www.w3.org/2000/svg"
   xmlns="http://www.w3.org/2000/svg"
   xmlns:xlink="http://www.w3.org/1999/xlink"
   xmlns:sodipodi="http://sodipodi.sourceforge.net/DTD/sodipodi-0.dtd"
   xmlns:inkscape="http://www.inkscape.org/namespaces/inkscape"
   width="210mm"
   height="297mm"
   viewBox="0 0 744.09448819 1052.3622047"
   id="svg2"
   version="1.1"
   inkscape:version="0.48.5 r10040"
   sodipodi:docname="Проект 1 - Фирмено лого.svg"
   inkscape:export-filename="/media/MULTIBOOT/2015-2016/презентации/Проект 1 - Фирмено лого.png"
   inkscape:export-xdpi="300"
   inkscape:export-ydpi="300">
  <defs
     id="defs4">
    <pattern
       inkscape:stockid="Wavy"
       id="Wavy"
       height="5.1805778"
       width="30.066020"
       patternUnits="userSpaceOnUse"
       inkscape:collect="always">
      <path
         id="path5804"
         d="M 7.597,0.061 C 5.079,-0.187 2.656,0.302 -0.01,1.788 L -0.01,3.061 C 2.773,1.431 5.173,1.052 7.472,1.280 C 9.770,1.508 11.969,2.361 14.253,3.218 C 18.820,4.931 23.804,6.676 30.066,3.061 L 30.062,1.788 C 23.622,5.497 19.246,3.770 14.691,2.061 C 12.413,1.207 10.115,0.311 7.597,0.061 z "
         style="fill:black;stroke:none;" />
    </pattern>
    <linearGradient
       id="linearGradient4246"
       inkscape:collect="always">
      <stop
         id="stop4248"
         offset="0"
         style="stop-color:#39316b;stop-opacity:1" />
      <stop
         id="stop4250"
         offset="1"
         style="stop-color:#00ffff;stop-opacity:0;" />
    </linearGradient>
    <linearGradient
       inkscape:collect="always"
       id="linearGradient4138">
      <stop
         style="stop-color:#39316b;stop-opacity:1"
         offset="0"
         id="stop4140" />
      <stop
         style="stop-color:#00ffff;stop-opacity:0;"
         offset="1"
         id="stop4142" />
    </linearGradient>
    <linearGradient
       inkscape:collect="always"
       xlink:href="#linearGradient4138"
       id="linearGradient4144"
       x1="383.71429"
       y1="608.07648"
       x2="370.57141"
       y2="290.93362"
       gradientUnits="userSpaceOnUse"
       gradientTransform="translate(-12.299244,-13.726482)" />
    <linearGradient
       inkscape:collect="always"
       xlink:href="#linearGradient4246"
       id="linearGradient4244"
       x1="371.41504"
       y1="594.34998"
       x2="358.27216"
       y2="277.20715"
       gradientUnits="userSpaceOnUse" />
  </defs>
  <sodipodi:namedview
     id="base"
     pagecolor="#ffffff"
     bordercolor="#666666"
     borderopacity="1.0"
     inkscape:pageopacity="0.0"
     inkscape:pageshadow="2"
     inkscape:zoom="0.7"
     inkscape:cx="399.52441"
     inkscape:cy="626.54069"
     inkscape:document-units="px"
     inkscape:current-layer="layer1"
     showgrid="false"
     inkscape:window-width="1024"
     inkscape:window-height="716"
     inkscape:window-x="-8"
     inkscape:window-y="-8"
     inkscape:window-maximized="1" />
  <metadata
     id="metadata7">
    <rdf:RDF>
      <cc:Work
         rdf:about="">
        <dc:format>image/svg+xml</dc:format>
        <dc:type
           rdf:resource="http://purl.org/dc/dcmitype/StillImage" />
        <dc:title />
      </cc:Work>
    </rdf:RDF>
  </metadata>
  <g
     inkscape:label="Layer 1"
     inkscape:groupmode="layer"
     id="layer1">
    <circle
       style="opacity:0.84290029;fill:url(#linearGradient4144);fill-opacity:1;fill-rule:nonzero;stroke:url(#linearGradient4244);stroke-width:4;stroke-linejoin:round;stroke-miterlimit:4;stroke-dasharray:none;stroke-dashoffset:0;stroke-opacity:0.8230769"
       id="path3336"
       cx="363.41507"
       cy="437.20712"
       r="158.57143" />
    <path
       sodipodi:type="star"
       style="opacity:0.84290029;fill:#000080;fill-opacity:0.42285713;fill-rule:nonzero;stroke:#39316b;stroke-width:2.79999995;stroke-linejoin:round;stroke-miterlimit:4;stroke-opacity:1;stroke-dasharray:none;stroke-dashoffset:0"
       id="path4146"
       sodipodi:sides="5"
       sodipodi:cx="155.89601"
       sodipodi:cy="442.36887"
       sodipodi:r1="28.721479"
       sodipodi:r2="9.7653027"
       sodipodi:arg1="0.43984258"
       sodipodi:arg2="1.0681611"
       inkscape:flatsided="false"
       inkscape:rounded="0"
       inkscape:randomized="0"
       d="m 181.88374,454.59839 -21.28343,-3.67203 -8.30461,19.93744 -3.08464,-21.37647 -21.5279,-1.73715 19.37702,-9.53935 -5.00035,-21.01106 15.06029,15.48082 18.43751,-11.2484 -10.06925,19.10703 z"
       inkscape:transform-center-x="0.98430038"
       inkscape:transform-center-y="1.4725263" />
    <use
       x="0"
       y="0"
       xlink:href="#path4146"
       inkscape:transform-center-x="1.8396553"
       inkscape:transform-center-y="2.752159"
       id="use4148"
       transform="translate(25.844332,95.68807)"
       width="100%"
       height="100%"
       style="fill:#1d1cc9;fill-opacity:0.42285713;stroke:#39316b;stroke-width:2.79999995;stroke-miterlimit:4;stroke-dasharray:none;stroke-opacity:1" />
    <use
       x="0"
       y="0"
       xlink:href="#path4146"
       inkscape:transform-center-x="1.8396553"
       inkscape:transform-center-y="2.752159"
       id="use4160"
       transform="translate(416.19549,0.9979056)"
       width="100%"
       height="100%"
       style="fill:#1d1cc9;fill-opacity:0.42285713;stroke:#39316b;stroke-width:2.79999995;stroke-miterlimit:4;stroke-dasharray:none;stroke-opacity:1" />
    <use
       x="0"
       y="0"
       xlink:href="#use4160"
       inkscape:transform-center-x="1.8396553"
       inkscape:transform-center-y="2.752159"
       id="use4162"
       transform="translate(-20.856176,98.838394)"
       width="100%"
       height="100%"
       style="fill:#1d1cc9;fill-opacity:0.42285713;stroke:#39316b;stroke-width:2.79999995;stroke-miterlimit:4;stroke-dasharray:none;stroke-opacity:1" />
    <use
       x="0"
       y="0"
       xlink:href="#use4162"
       inkscape:transform-center-x="1.8396553"
       inkscape:transform-center-y="2.752159"
       id="use4164"
       transform="translate(-64.880141,78.047007)"
       width="100%"
       height="100%"
       style="fill:#1d1cc9;fill-opacity:0.42285713;stroke:#39316b;stroke-width:2.79999995;stroke-miterlimit:4;stroke-dasharray:none;stroke-opacity:1" />
    <use
       x="0"
       y="0"
       xlink:href="#use4164"
       inkscape:transform-center-x="1.8396553"
       inkscape:transform-center-y="2.752159"
       id="use4166"
       transform="translate(-102.15958,24.063387)"
       width="100%"
       height="100%"
       style="fill:#1d1cc9;fill-opacity:0.42285713;stroke:#39316b;stroke-width:2.79999995;stroke-miterlimit:4;stroke-dasharray:none;stroke-opacity:1" />
    <use
       x="0"
       y="0"
       xlink:href="#use4166"
       inkscape:transform-center-x="1.8396553"
       inkscape:transform-center-y="2.752159"
       id="use4168"
       transform="translate(-123.13909,-27.294051)"
       width="100%"
       height="100%"
       style="fill:#1d1cc9;fill-opacity:0.42285713;stroke:#39316b;stroke-width:2.79999995;stroke-miterlimit:4;stroke-dasharray:none;stroke-opacity:1" />
    <path
       style="fill:#ffeded;fill-opacity:1;stroke:#39316b;stroke-opacity:1"
       d="m 366.87239,561.94145 0,-17.7955 -2.02322,-1.86929 c -14.67376,-13.55738 -32.00208,-22.50903 -51.2425,-26.47139 -6.04602,-1.24511 -13.17565,-2.06208 -18.80905,-2.15528 l -1.81406,-0.03 -12.569,12.56835 -12.56899,12.56834 -2.09646,-2.09646 -2.09647,-2.09646 12.56689,-12.56753 12.56688,-12.56753 -0.094,-3.06624 c -0.49464,-16.12859 -5.05472,-32.77109 -12.89505,-47.06195 -4.45813,-8.12596 -9.24134,-14.74293 -15.86954,-21.95348 l -1.6639,-1.81009 -17.79574,0 -17.79575,0 0,-2.94286 0,-2.94285 17.79057,0 17.79056,0 2.06231,-2.24393 c 16.68375,-18.15301 26.37042,-40.43342 28.19569,-64.85321 0.11795,-1.57811 0.22476,-3.75579 0.23734,-4.8393 l 0.0229,-1.97 -12.55954,-12.56019 -12.55955,-12.56019 2.09647,-2.09646 2.09646,-2.09647 12.61734,12.59002 12.61734,12.59002 2.79571,-0.10433 c 18.96436,-0.7077 37.49963,-6.43499 53.16906,-16.42893 6.02997,-3.8459 10.71897,-7.48367 16.31915,-12.66055 l 1.50822,-1.39421 0,-17.78613 0,-17.78614 2.94285,0 2.94286,0 0,17.79216 0,17.79216 1.81488,1.67368 c 7.81715,7.20898 15.65035,12.69512 24.74441,17.33027 13.58565,6.92447 28.99251,10.913 44.29,11.4658 l 2.94285,0.10634 12.61734,-12.59008 12.61734,-12.59008 2.09646,2.09647 2.09646,2.09646 -12.54344,12.54409 -12.54344,12.54408 0,1.91254 c 0,3.49517 0.60871,10.08027 1.3323,14.41968 3.50021,20.99081 12.64774,39.68092 27.09615,55.3625 l 2.06748,2.24393 17.78552,0 17.78553,0 0,2.94285 0,2.94286 -17.78928,0 -17.78926,0 -1.52815,1.65536 c -2.60808,2.8252 -3.69101,4.07478 -5.65395,6.524 -13.65143,17.03335 -21.69567,37.81407 -23.14891,59.80064 -0.0829,1.25439 -0.15996,3.10058 -0.1712,4.10265 l -0.0205,1.82193 12.56048,12.56113 12.56047,12.56111 -2.09646,2.09646 -2.09646,2.09646 -12.54409,-12.54344 -12.54409,-12.54344 -1.83896,10e-4 c -7.09718,0.006 -17.4239,1.50608 -25.39246,3.68949 -16.81587,4.60762 -32.04596,13.13913 -44.97829,25.19574 l -1.72893,1.61185 0,17.7843 0,17.7843 -2.94286,0 -2.94285,0 0,-17.79548 z m -0.25677,-54.79035 c -0.14203,-0.15944 -1.11902,-1.04879 -2.17109,-1.97632 -7.10809,-6.26669 -15.42282,-11.04006 -24.50414,-14.06747 -5.79645,-1.93234 -12.72321,-3.20239 -18.68229,-3.42547 l -2.28071,-0.0854 -10.13543,10.15036 -10.13543,10.15035 1.23329,0.0982 c 19.86872,1.58211 37.45916,7.48867 53.61614,18.0034 4.20202,2.73462 11.32398,8.165 12.87818,9.81943 l 0.36468,0.38819 0.0375,-14.38269 c 0.0353,-13.5358 0.0223,-14.39976 -0.22071,-14.6726 z m 9.9682,25.77964 c 15.98021,-13.07229 35.73108,-21.55115 56.50285,-24.25613 1.94504,-0.25329 6.95911,-0.73991 7.651,-0.74254 0.12116,0 -4.08325,-4.30477 -9.34314,-9.56513 l -9.56343,-9.56428 -1.47186,10e-4 c -1.8792,0.001 -6.05019,0.36496 -8.60828,0.75103 -13.97626,2.10928 -26.57191,8.13791 -37.11679,17.76517 l -1.87607,1.71282 0,13.58317 0,13.58318 1.14036,-1.00214 c 0.6272,-0.55117 1.83561,-1.57087 2.68536,-2.26599 z m -61.85878,-51.77951 c -0.60855,-15.82966 -6.98628,-31.38819 -17.86547,-43.58304 l -1.81211,-2.03125 -14.41107,0 -14.41107,0 1.36499,1.58179 c 14.13597,16.38109 23.40306,37.20469 26.14398,58.74678 0.25181,1.97906 0.74055,7.01201 0.74298,7.65103 4.4e-4,0.12118 4.57612,-4.34829 10.16814,-9.93214 l 10.16731,-10.15246 -0.0877,-2.28071 z m 130.56806,20.37928 c 1.91365,-23.76202 11.20494,-46.2436 26.49879,-64.1175 l 1.60526,-1.87607 -14.40705,0 -14.40707,0 -1.81211,2.03206 c -10.88411,12.20522 -17.17255,27.53125 -17.8725,43.55842 l -0.0986,2.25691 10.13316,10.13395 c 5.57322,5.57366 10.14688,10.12005 10.16367,10.10309 0.0168,-0.017 0.10518,-0.95786 0.19642,-2.09086 z m -71.52498,-1.2233 c 3.23248,-2.76094 7.93493,-5.92279 12.50554,-8.40851 8.56875,-4.6601 19.65706,-7.94823 29.41568,-8.7229 0.46263,-0.0367 0.0792,-0.43936 -10.30537,-10.82135 l -10.7859,-10.78321 -1.76034,0.16034 c -7.25264,0.66057 -14.22705,3.67682 -19.47015,8.42034 l -0.60948,0.5514 0,15.1561 c 0,8.33584 0.0407,15.15609 0.0904,15.15609 0.0497,0 0.46354,-0.31874 0.91964,-0.7083 z m -7.52036,-30.22166 c -5.35273,-4.73841 -12.22263,-7.70135 -19.37633,-8.35689 l -1.82882,-0.16758 -10.20017,10.19937 -10.20016,10.19937 2.53827,0.31499 c 3.46694,0.43022 5.55196,0.81648 9.01994,1.67101 10.80334,2.66201 20.74001,7.57336 29.42118,14.54188 l 1.17715,0.94491 0.0375,-14.39641 0.0375,-14.3964 -0.62609,-0.55425 z m -25.49887,-13.80147 c -0.46411,-5.59232 -2.08011,-10.72071 -4.77572,-15.15571 -0.75451,-1.24137 -2.78293,-3.98108 -3.73123,-5.03964 l -0.49431,-0.55179 -14.36762,0 c -7.90219,0 -14.36762,0.0354 -14.36762,0.0787 0,0.0433 0.42035,0.58956 0.93411,1.21393 3.17243,3.85545 6.24567,8.66739 8.75998,13.71595 3.91421,7.85949 6.32663,15.87408 7.40015,24.58488 l 0.32673,2.65122 10.20356,-10.19698 10.20356,-10.19697 -0.0916,-1.10358 z m 79.3766,14.64072 c 0.43887,-2.46364 1.63933,-7.26302 2.44936,-9.79239 2.73837,-8.55075 7.66883,-17.69123 13.10913,-24.30285 0.51376,-0.62437 0.93412,-1.17064 0.93412,-1.21393 0,-0.0433 -6.46543,-0.0787 -14.36762,-0.0787 l -14.36761,0 -0.49433,0.55179 c -0.94917,1.05953 -2.97699,3.79874 -3.73082,5.03964 -2.62671,4.32396 -4.22668,9.25286 -4.71825,14.53518 l -0.15839,1.70202 10.19996,10.20074 10.19994,10.20073 0.31499,-2.53825 c 0.17323,-1.39605 0.45653,-3.33285 0.62952,-4.30399 z m -53.2531,-19.53273 0,-11.66057 -8.2423,8.2395 -8.2423,8.23951 0.84837,0.18117 c 3.61433,0.77183 6.10792,1.56521 8.8938,2.82971 1.87472,0.85093 4.56419,2.34779 5.93314,3.30215 0.40465,0.28209 0.75227,0.51655 0.7725,0.52101 0.0202,0.004 0.0368,-5.23916 0.0368,-11.65248 z m 7.80832,10.43914 c 3.67028,-2.39169 8.31419,-4.27661 12.96489,-5.26229 0.83541,-0.17705 1.53284,-0.333 1.54983,-0.34655 0.017,-0.0135 -3.67445,-3.72952 -8.20321,-8.25774 l -8.23412,-8.23313 0,11.67751 0,11.67749 0.34083,-0.22332 c 0.18746,-0.12282 0.89926,-0.58722 1.58178,-1.03197 z m -17.88706,-26.25917 c -3.19698,-0.0212 -8.42818,-0.0212 -11.62488,0 l -5.81219,0.0385 0.57238,0.80929 c 2.70682,3.82716 5.07258,9.56237 6.06036,14.69183 l 0.17985,0.93398 8.21859,-8.21755 8.21859,-8.21755 -5.8127,-0.0385 z m 37.39248,13.23133 c 0.28289,-1.1605 0.78217,-2.84896 1.10953,-3.75214 1.01731,-2.80662 3.15634,-6.91858 4.7771,-9.18322 l 0.23694,-0.33107 -11.67852,0 -11.67852,0 8.2395,8.24174 8.23951,8.24173 0.12007,-0.55352 c 0.066,-0.30444 0.35151,-1.50302 0.63439,-2.66352 z M 296.2726,428.29016 c 7.56645,-8.34196 12.815,-17.65632 15.79027,-28.02224 1.57946,-5.50289 2.72095,-12.77211 2.72095,-17.32758 l 0,-1.18491 -10.15286,-10.15206 c -5.58407,-5.58363 -10.15319,-10.05291 -10.1536,-9.93174 -0.002,0.5135 -0.45933,5.3697 -0.6655,7.06246 -1.8854,15.4794 -7.30824,31.10705 -15.41982,44.43714 -3.13675,5.15475 -7.57792,11.24945 -11.17789,15.33964 l -1.00369,1.14036 14.4138,0 14.4138,0 1.23454,-1.36107 z m 36.66655,0 c 2.40192,-2.848 4.69484,-6.82784 5.90803,-10.25458 0.99424,-2.8083 1.61227,-5.74738 1.91654,-9.11421 l 0.0982,-1.08628 -10.2062,-10.20699 -10.20619,-10.20698 -0.3134,2.53827 c -1.25771,10.18616 -4.46229,19.84828 -9.49922,28.64103 -1.34335,2.34503 -4.01114,6.31753 -5.72913,8.531 -0.84013,1.08243 -1.61835,2.0922 -1.72938,2.24393 -0.19702,0.26924 0.14493,0.27588 14.20551,0.27588 l 14.40739,0 1.14788,-1.36107 z m 21.50555,-6.87305 c -4.52822,-4.52876 -8.24421,-8.22021 -8.25775,-8.20321 -0.0135,0.017 -0.17017,0.72615 -0.34806,1.5759 -0.98644,4.71196 -2.77784,9.09661 -5.37824,13.16381 l -1.08538,1.69762 11.65128,0 11.65128,0 -8.23313,-8.23412 z m 45.6315,7.90305 c -2.84799,-4.03786 -5.11056,-9.20894 -6.19668,-14.1625 -0.21293,-0.97115 -0.40086,-1.81554 -0.41762,-1.87644 -0.0168,-0.0609 -3.7382,3.59744 -8.26986,8.12964 l -8.23938,8.24037 11.67852,0 11.67852,0 -0.2335,-0.33107 z m 36.37592,0.0472 c -0.11103,-0.15614 -0.81846,-1.06658 -1.57206,-2.02321 -1.64673,-2.0904 -4.61061,-6.51529 -5.99445,-8.94934 -1.30202,-2.29017 -3.50944,-6.85212 -4.46795,-9.23366 -2.40333,-5.97135 -4.20031,-13.03696 -4.95979,-19.50155 l -0.26428,-2.24949 -10.20178,10.19521 -10.2018,10.1952 0.0885,1.10358 c 0.61332,7.64513 3.4025,14.32241 8.37162,20.04158 l 0.6015,0.69231 14.40117,0.007 c 14.19749,0.007 14.39829,0.003 14.19928,-0.27725 z m 35.96422,-0.85648 c -2.31362,-2.62866 -5.33968,-6.54667 -7.64267,-9.89536 -11.06721,-16.0924 -17.68446,-34.53878 -19.39823,-54.075 -0.1207,-1.37578 -0.22026,-2.63367 -0.22124,-2.79531 -10e-4,-0.1998 -3.25691,2.95645 -10.16915,9.85857 l -10.16732,10.15246 0.0845,2.21788 c 0.60497,15.88444 6.93984,31.3627 17.86303,43.64552 l 1.80672,2.0316 14.42403,0 14.42405,0 -1.00369,-1.14036 z m -105.57905,-20.54894 -0.0385,-5.79787 -1.10357,0.73038 c -4.35287,2.88087 -9.89126,5.10523 -14.77602,5.93444 l -0.57674,0.0979 8.22817,8.2292 8.22816,8.22921 0.0385,-5.8127 c 0.0212,-3.19698 0.0212,-8.42173 0,-11.61056 z m 22.29082,0.9855 c -0.0609,-0.0168 -0.90529,-0.20468 -1.87644,-0.41762 -4.93635,-1.08234 -10.13868,-3.35858 -14.1625,-6.19668 l -0.33107,-0.23351 0,11.67853 0,11.67852 8.24037,-8.23938 c 4.53221,-4.53166 8.19055,-8.2531 8.12964,-8.26986 z m -39.98644,-5.78757 c 4.23725,-0.6641 8.22253,-2.09337 11.8309,-4.24301 1.56216,-0.93064 4.35453,-2.97458 5.34803,-3.91463 l 0.55179,-0.5221 0,-14.34444 c 0,-7.88945 -0.0391,-14.34445 -0.0869,-14.34445 -0.0478,0 -0.42852,0.28812 -0.84607,0.64027 -1.33551,1.12633 -3.93557,3.0329 -6.05633,4.44097 -9.77683,6.49131 -21.29332,10.70657 -33.00235,12.0795 l -2.24949,0.26377 10.19521,10.20032 10.1952,10.20033 1.17715,-0.0899 c 0.64743,-0.0494 1.97171,-0.21443 2.94285,-0.36663 z m 55.66275,-9.74852 10.19481,-10.1956 -2.2495,-0.26391 c -8.51013,-0.9984 -16.77861,-3.44028 -24.46806,-7.22601 -5.41299,-2.66497 -9.52673,-5.24997 -13.85591,-8.70683 -0.84569,-0.67527 -1.56687,-1.22776 -1.60264,-1.22776 -0.0358,0 -0.065,6.45453 -0.065,14.3434 l 0,14.34339 0.67714,0.62839 c 1.17304,1.08859 3.45159,2.74312 5.27117,3.82757 4.56212,2.71897 9.90118,4.32375 15.46137,4.64726 0.39992,0.0233 1.40877,-0.9413 10.63664,-10.1699 z m -79.27917,-16.22056 c 14.90779,-1.69179 28.40139,-7.73873 39.47107,-17.68835 l 1.87607,-1.68625 0,-14.41646 0,-14.41646 -0.99322,0.87372 c -15.3657,13.51713 -35.42906,22.91434 -55.80392,26.13726 -3.60427,0.57013 -9.60836,1.25161 -11.10889,1.26089 -0.1998,0.001 2.95622,3.25667 9.85857,10.16912 l 10.15246,10.16731 2.28071,-0.0877 c 1.2544,-0.0482 3.17461,-0.18912 4.26715,-0.3131 z m 105.28071,-9.78098 c 6.89761,-6.89817 10.05785,-10.15344 9.85817,-10.15467 -0.62204,-0.004 -5.15796,-0.43643 -6.94916,-0.66273 -22.29257,-2.81643 -42.96843,-12.00129 -59.74294,-26.53968 l -1.21393,-1.05211 0,14.41604 0,14.41605 1.77063,1.58036 c 5.04145,4.49972 10.06229,7.92632 15.81294,10.79195 7.7424,3.85814 16.16159,6.28248 24.49929,7.05465 0.93068,0.0862 1.92389,0.17903 2.20714,0.20631 0.28325,0.0273 1.21043,0.0602 2.0604,0.0731 l 1.5454,0.0236 10.15206,-10.15286 z"
       id="path4259"
       inkscape:connector-curvature="0" />
    <circle
       style="opacity:0.84290029;fill:none;fill-opacity:1;fill-rule:nonzero;stroke:#3327cc;stroke-width:3.92247462;stroke-linejoin:round;stroke-miterlimit:4;stroke-dasharray:none;stroke-dashoffset:0;stroke-opacity:0.82307691"
       id="path4236"
       cx="364.66507"
       cy="439.19958"
       r="253.58705" />
    <text
       xml:space="preserve"
       style="font-style:normal;font-weight:normal;font-size:40px;line-height:125%;font-family:Sans;letter-spacing:0px;word-spacing:0px;fill:#aeadec;fill-opacity:1;stroke:#39316b;stroke-width:1px;stroke-linecap:butt;stroke-linejoin:miter;stroke-opacity:1"
       id="text4252"
       sodipodi:linespacing="125%"
       transform="matrix(1.0948619,0,0,1.0476448,-36.565988,-40.552087)"><textPath
         xlink:href="#path3336"
         id="textPath4256"><tspan
   style="font-style:normal;font-variant:normal;font-weight:normal;font-stretch:normal;font-size:60px;line-height:125%;font-family:'Bitstream Charter';-inkscape-font-specification:'Bitstream Charter';text-align:start;letter-spacing:11.36999989px;writing-mode:lr-tb;text-anchor:start;fill:#aeadec;fill-opacity:1;stroke:#39316b;stroke-opacity:1"
   id="tspan4254"
   dy="0 0 0 0 0 0 0 0 0 0 0 0 0 0 0 0 0 0 0 0">                    spider web</tspan></textPath></text>
  </g>
</svg>
